# 3ds Max Wavefront OBJ Exporter v0.97b - (c)2007 guruware
# File Created: 05.10.2014 15:52:17

mtllib ACTOR1.mtl

#
# object Box111
#

v  5.000000 5.000000 2.500000
v  5.000000 15.000000 2.500000
v  15.000000 15.000000 2.500000
v  15.000000 5.000000 2.500000
v  5.000000 5.000000 12.500000
v  15.000000 5.000000 12.500000
v  15.000000 15.000000 12.500000
v  5.000000 15.000000 12.500000
# 8 vertices

vn 0.000000 0.000000 -1.000000
vn 0.000000 0.000000 1.000000
vn 0.000000 -1.000000 0.000000
vn 1.000000 0.000000 0.000000
vn 0.000000 1.000000 0.000000
vn -1.000000 0.000000 0.000000
# 6 vertex normals

vt 10.000000 0.000000 0.000000
vt 10.000000 10.000000 0.000000
vt 0.000000 10.000000 0.000000
vt 0.000000 0.000000 0.000000
# 4 texture coords

g Box111
usemtl FOOD
f -8/-4/-6 -7/-3/-6 -6/-2/-6 -5/-1/-6 
f -4/-1/-5 -3/-4/-5 -2/-3/-5 -1/-2/-5 
f -8/-1/-4 -5/-4/-4 -3/-3/-4 -4/-2/-4 
f -5/-1/-3 -6/-4/-3 -2/-3/-3 -3/-2/-3 
f -6/-1/-2 -7/-4/-2 -1/-3/-2 -2/-2/-2 
f -7/-1/-1 -8/-4/-1 -4/-3/-1 -1/-2/-1 
# 6 polygons

