# 3ds Max Wavefront OBJ Exporter v0.97b - (c)2007 guruware
# File Created: 05.10.2014 15:30:19

mtllib EYES.mtl

#
# object objL06A_eye_L
#

v  0.181061 -1.923315 2.263756
v  0.262717 -1.959503 2.220476
v  0.192767 -1.969244 2.260310
v  0.263530 -1.999730 2.246946
v  0.223144 -2.005354 2.269943
v  0.264057 -2.022180 2.290025
v  0.181659 -1.942815 2.355327
v  0.193285 -1.986132 2.339616
v  0.223443 -2.015105 2.315729
v  0.263028 -1.951064 2.400904
v  0.263752 -1.993276 2.379086
v  0.264127 -2.019229 2.338517
v  0.343799 -1.939814 2.354910
v  0.333702 -1.983534 2.339252
v  0.304513 -2.013605 2.315521
v  0.343201 -1.920315 2.263335
v  0.333184 -1.966647 2.259948
v  0.304214 -2.003855 2.269734
v  0.261832 -1.912065 2.217759
# 19 vertices

vn -0.833614 -0.173128 -0.524513
vn 0.002655 -0.277795 -0.960637
vn -0.757954 -0.383734 -0.527498
vn 0.011005 -0.695286 -0.718649
vn -0.470374 -0.762329 -0.444525
vn 0.017556 -0.977898 -0.208345
vn -0.827457 -0.374006 0.418850
vn -0.752326 -0.567356 0.334833
vn -0.466813 -0.878543 0.101237
vn 0.010791 -0.458993 0.888374
vn 0.013912 -0.645042 0.764020
vn 0.018132 -0.927709 0.372864
vn 0.842879 -0.343103 0.414530
vn 0.774522 -0.539104 0.330881
vn 0.499512 -0.860661 0.098740
vn 0.836721 -0.142223 -0.528839
vn 0.768893 -0.355482 -0.531448
vn 0.495949 -0.744450 -0.447021
vn -0.001524 -0.057229 -0.998360
# 19 vertex normals

vt 0.251226 0.781310 0.000000
vt 0.313726 0.769871 0.000000
vt 0.259599 0.783403 0.000000
vt 0.313726 0.780297 0.000000
vt 0.284566 0.788616 0.000000
vt 0.313726 0.796935 0.000000
vt 0.251226 0.812560 0.000000
vt 0.259599 0.810466 0.000000
vt 0.284566 0.805254 0.000000
vt 0.313726 0.828185 0.000000
vt 0.313726 0.823998 0.000000
vt 0.313726 0.813572 0.000000
vt 0.376226 0.812560 0.000000
vt 0.367853 0.810466 0.000000
vt 0.342886 0.805254 0.000000
vt 0.376226 0.781310 0.000000
vt 0.367853 0.783403 0.000000
vt 0.342886 0.788616 0.000000
vt 0.313726 0.765685 0.000000
# 19 texture coords

g objL06A_eye_L
usemtl ACTOR
f -19/-19/-19 -18/-18/-18 -17/-17/-17 
f -17/-17/-17 -16/-16/-16 -15/-15/-15 
f -14/-14/-14 -15/-15/-15 -16/-16/-16 
f -13/-13/-13 -17/-17/-17 -12/-12/-12 
f -12/-12/-12 -15/-15/-15 -11/-11/-11 
f -14/-14/-14 -11/-11/-11 -15/-15/-15 
f -10/-10/-10 -12/-12/-12 -9/-9/-9 
f -9/-9/-9 -11/-11/-11 -8/-8/-8 
f -14/-14/-14 -8/-8/-8 -11/-11/-11 
f -7/-7/-7 -9/-9/-9 -6/-6/-6 
f -6/-6/-6 -8/-8/-8 -5/-5/-5 
f -14/-14/-14 -5/-5/-5 -8/-8/-8 
f -4/-4/-4 -6/-6/-6 -3/-3/-3 
f -3/-3/-3 -5/-5/-5 -2/-2/-2 
f -14/-14/-14 -2/-2/-2 -5/-5/-5 
f -1/-1/-1 -3/-3/-3 -18/-18/-18 
f -18/-18/-18 -2/-2/-2 -16/-16/-16 
f -14/-14/-14 -16/-16/-16 -2/-2/-2 
f -1/-1/-1 -18/-18/-18 -19/-19/-19 
f -18/-18/-18 -16/-16/-16 -17/-17/-17 
f -19/-19/-19 -17/-17/-17 -13/-13/-13 
f -17/-17/-17 -15/-15/-15 -12/-12/-12 
f -13/-13/-13 -12/-12/-12 -10/-10/-10 
f -12/-12/-12 -11/-11/-11 -9/-9/-9 
f -10/-10/-10 -9/-9/-9 -7/-7/-7 
f -9/-9/-9 -8/-8/-8 -6/-6/-6 
f -7/-7/-7 -6/-6/-6 -4/-4/-4 
f -6/-6/-6 -5/-5/-5 -3/-3/-3 
f -4/-4/-4 -3/-3/-3 -1/-1/-1 
f -3/-3/-3 -2/-2/-2 -18/-18/-18 
# 0 polygons - 30 triangles

#
# object objL06A_eye_R
#

v  -0.199760 -1.930365 2.264740
v  -0.118104 -1.966552 2.221462
v  -0.188054 -1.976295 2.261297
v  -0.117291 -2.006780 2.247930
v  -0.157677 -2.012404 2.270929
v  -0.116764 -2.029230 2.291012
v  -0.199163 -1.949864 2.356314
v  -0.187537 -1.993181 2.340602
v  -0.157378 -2.022154 2.316715
v  -0.117793 -1.958114 2.401891
v  -0.117069 -2.000326 2.380071
v  -0.116693 -2.026278 2.339504
v  -0.037022 -1.946864 2.355894
v  -0.047118 -1.990584 2.340237
v  -0.076307 -2.020655 2.316507
v  -0.037619 -1.927364 2.264322
v  -0.047636 -1.973696 2.260934
v  -0.076606 -2.010905 2.270719
v  -0.118989 -1.919115 2.218745
# 19 vertices

vn -0.833609 -0.173136 -0.524518
vn 0.002656 -0.277798 -0.960636
vn -0.757955 -0.383737 -0.527495
vn 0.011010 -0.695280 -0.718654
vn -0.470376 -0.762330 -0.444521
vn 0.017556 -0.977898 -0.208344
vn -0.827451 -0.374013 0.418854
vn -0.752325 -0.567357 0.334831
vn -0.466812 -0.878543 0.101237
vn 0.010791 -0.458993 0.888375
vn 0.013913 -0.645041 0.764021
vn 0.018132 -0.927709 0.372864
vn 0.842880 -0.343101 0.414530
vn 0.774522 -0.539104 0.330881
vn 0.499512 -0.860662 0.098740
vn 0.836722 -0.142222 -0.528837
vn 0.768893 -0.355482 -0.531447
vn 0.495951 -0.744449 -0.447022
vn -0.001522 -0.057244 -0.998359
# 19 vertex normals

vt 0.250000 0.781304 0.000000
vt 0.312500 0.769866 0.000000
vt 0.258373 0.783398 0.000000
vt 0.312500 0.780292 0.000000
vt 0.283340 0.788611 0.000000
vt 0.312500 0.796929 0.000000
vt 0.250000 0.812554 0.000000
vt 0.258373 0.810461 0.000000
vt 0.283340 0.805248 0.000000
vt 0.312500 0.828179 0.000000
vt 0.312500 0.823993 0.000000
vt 0.312500 0.813567 0.000000
vt 0.375000 0.812554 0.000000
vt 0.366627 0.810461 0.000000
vt 0.341660 0.805248 0.000000
vt 0.375000 0.781304 0.000000
vt 0.366627 0.783398 0.000000
vt 0.341660 0.788611 0.000000
vt 0.312500 0.765679 0.000000
# 19 texture coords

g objL06A_eye_R
usemtl ACTOR
f -19/-19/-19 -18/-18/-18 -17/-17/-17 
f -17/-17/-17 -16/-16/-16 -15/-15/-15 
f -14/-14/-14 -15/-15/-15 -16/-16/-16 
f -13/-13/-13 -17/-17/-17 -12/-12/-12 
f -12/-12/-12 -15/-15/-15 -11/-11/-11 
f -14/-14/-14 -11/-11/-11 -15/-15/-15 
f -10/-10/-10 -12/-12/-12 -9/-9/-9 
f -9/-9/-9 -11/-11/-11 -8/-8/-8 
f -14/-14/-14 -8/-8/-8 -11/-11/-11 
f -7/-7/-7 -9/-9/-9 -6/-6/-6 
f -6/-6/-6 -8/-8/-8 -5/-5/-5 
f -14/-14/-14 -5/-5/-5 -8/-8/-8 
f -4/-4/-4 -6/-6/-6 -3/-3/-3 
f -3/-3/-3 -5/-5/-5 -2/-2/-2 
f -14/-14/-14 -2/-2/-2 -5/-5/-5 
f -1/-1/-1 -3/-3/-3 -18/-18/-18 
f -18/-18/-18 -2/-2/-2 -16/-16/-16 
f -14/-14/-14 -16/-16/-16 -2/-2/-2 
f -1/-1/-1 -18/-18/-18 -19/-19/-19 
f -18/-18/-18 -16/-16/-16 -17/-17/-17 
f -19/-19/-19 -17/-17/-17 -13/-13/-13 
f -17/-17/-17 -15/-15/-15 -12/-12/-12 
f -13/-13/-13 -12/-12/-12 -10/-10/-10 
f -12/-12/-12 -11/-11/-11 -9/-9/-9 
f -10/-10/-10 -9/-9/-9 -7/-7/-7 
f -9/-9/-9 -8/-8/-8 -6/-6/-6 
f -7/-7/-7 -6/-6/-6 -4/-4/-4 
f -6/-6/-6 -5/-5/-5 -3/-3/-3 
f -4/-4/-4 -3/-3/-3 -1/-1/-1 
f -3/-3/-3 -2/-2/-2 -18/-18/-18 
# 0 polygons - 30 triangles

